<?xml version="1.0" encoding="utf-8"?>
<!-- Generator: Adobe Illustrator 16.0.4, SVG Export Plug-In . SVG Version: 6.00 Build 0)  -->
<!DOCTYPE svg PUBLIC "-//W3C//DTD SVG 1.1//EN" "http://www.w3.org/Graphics/SVG/1.1/DTD/svg11.dtd">
<svg version="1.1" xmlns="http://www.w3.org/2000/svg" xmlns:xlink="http://www.w3.org/1999/xlink" x="0px" y="0px"
	 width="639.779px" height="367.654px" viewBox="0 0 639.779 367.654" enable-background="new 0 0 639.779 367.654"
	 xml:space="preserve">
<g id="Layer_1">
	<g transform="translate(22.5000185, 22.5000185) ">
		<polygon fill="none" stroke="#FF0000" stroke-width="0.001" points="-4.5,-4.5 21.012,-4.5 21.012,4.004 46.524,4.004 
			46.524,-4.5 63.531,-4.5 63.531,4.004 80.539,4.004 80.539,-4.5 97.547,-4.5 97.547,4.004 114.555,4.004 114.555,-4.5 
			131.563,-4.5 131.563,4.004 157.074,4.004 157.074,-4.5 182.586,-4.5 182.586,16.76 174.082,16.76 174.082,38.019 182.586,38.019 
			182.586,55.028 174.082,55.028 174.082,76.288 182.586,76.288 182.586,97.548 157.074,97.548 157.074,89.044 131.563,89.044 
			131.563,97.548 114.555,97.548 114.555,89.044 97.547,89.044 97.547,97.548 80.539,97.548 80.539,89.044 63.531,89.044 
			63.531,97.548 46.524,97.548 46.524,89.044 21.012,89.044 21.012,97.548 -4.5,97.548 -4.5,76.288 4.004,76.288 4.004,55.028 
			-4.5,55.028 -4.5,38.019 4.004,38.019 4.004,16.76 -4.5,16.76 		"/>
	</g>
	<g transform="translate(256.3584785, 22.5000185) ">
		<polygon fill="none" stroke="#FF0000" stroke-width="0.001" points="-51.272,-4.5 -25.761,-4.5 -25.761,4.004 -0.248,4.004 
			-0.248,-4.5 16.76,-4.5 16.76,4.004 33.768,4.004 33.768,-4.5 50.776,-4.5 50.776,4.004 67.783,4.004 67.783,-4.5 84.791,-4.5 
			84.791,4.004 110.303,4.004 110.303,-4.5 135.815,-4.5 135.815,16.76 127.311,16.76 127.311,38.019 135.815,38.019 
			135.815,55.028 127.311,55.028 127.311,76.288 135.815,76.288 135.815,97.548 110.303,97.548 110.303,89.044 84.791,89.044 
			84.791,97.548 67.783,97.548 67.783,89.044 50.776,89.044 50.776,97.548 33.768,97.548 33.768,89.044 16.76,89.044 16.76,97.548 
			-0.248,97.548 -0.248,89.044 -25.761,89.044 -25.761,97.548 -51.272,97.548 -51.272,76.288 -42.768,76.288 -42.768,55.028 
			-51.272,55.028 -51.272,38.019 -42.768,38.019 -42.768,16.76 -51.272,16.76 		"/>
	</g>
	<g transform="translate(490.21693849999997, 22.5000185) ">
		<polygon fill="none" stroke="#FF0000" stroke-width="0.001" points="-89.54,-4.5 -70.406,-4.5 -70.406,4.004 -42.768,4.004 
			-42.768,-4.5 -25.761,-4.5 -25.761,4.004 -8.753,4.004 -8.753,-4.5 8.255,-4.5 8.255,4.004 25.263,4.004 25.263,-4.5 42.271,-4.5 
			42.271,4.004 59.279,4.004 59.279,-4.5 76.287,-4.5 76.287,4.004 103.925,4.004 103.925,-4.5 123.059,-4.5 123.059,16.76 
			131.563,16.76 131.563,38.019 123.059,38.019 123.059,55.028 131.563,55.028 131.563,76.288 123.059,76.288 123.059,97.548 
			103.925,97.548 103.925,89.044 76.287,89.044 76.287,97.548 59.279,97.548 59.279,89.044 42.271,89.044 42.271,97.548 
			25.263,97.548 25.263,89.044 8.255,89.044 8.255,97.548 -8.753,97.548 -8.753,89.044 -25.761,89.044 -25.761,97.548 
			-42.768,97.548 -42.768,89.044 -70.406,89.044 -70.406,97.548 -89.54,97.548 -89.54,76.288 -98.044,76.288 -98.044,55.028 
			-89.54,55.028 -89.54,38.019 -98.044,38.019 -98.044,16.76 -89.54,16.76 		"/>
	</g>
	<g transform="translate(490.21693849999997, 150.0591785) ">
		<polygon fill="none" stroke="#FF0000" stroke-width="0.001" points="-89.54,-30.012 -70.406,-30.012 -70.406,-21.508 
			-42.768,-21.508 -42.768,-30.012 -25.761,-30.012 -25.761,-21.508 -8.753,-21.508 -8.753,-30.012 8.255,-30.012 8.255,-21.508 
			25.263,-21.508 25.263,-30.012 42.271,-30.012 42.271,-21.508 59.279,-21.508 59.279,-30.012 76.287,-30.012 76.287,-21.508 
			103.925,-21.508 103.925,-30.012 123.059,-30.012 123.059,-8.752 131.563,-8.752 131.563,12.508 123.059,12.508 123.059,29.516 
			131.563,29.516 131.563,50.776 123.059,50.776 123.059,72.035 103.925,72.035 103.925,63.531 76.287,63.531 76.287,72.035 
			59.279,72.035 59.279,63.531 42.271,63.531 42.271,72.035 25.263,72.035 25.263,63.531 8.255,63.531 8.255,72.035 -8.753,72.035 
			-8.753,63.531 -25.761,63.531 -25.761,72.035 -42.768,72.035 -42.768,63.531 -70.406,63.531 -70.406,72.035 -89.54,72.035 
			-89.54,50.776 -98.044,50.776 -98.044,29.516 -89.54,29.516 -89.54,12.508 -98.044,12.508 -98.044,-8.752 -89.54,-8.752 		"/>
	</g>
	<g transform="translate(22.5000185, 150.0591785) ">
		<polygon fill="none" stroke="#FF0000" stroke-width="0.001" points="4.004,-21.508 21.012,-21.508 21.012,-30.012 46.524,-30.012 
			46.524,-21.508 63.531,-21.508 63.531,-30.012 80.539,-30.012 80.539,-21.508 97.547,-21.508 97.547,-30.012 114.555,-30.012 
			114.555,-21.508 131.563,-21.508 131.563,-30.012 157.074,-30.012 157.074,-21.508 174.082,-21.508 174.082,-2.374 
			182.586,-2.374 182.586,25.264 174.082,25.264 174.082,42.272 182.586,42.272 182.586,59.279 174.082,59.279 174.082,76.287 
			182.586,76.287 182.586,93.295 174.082,93.295 174.082,110.303 182.586,110.303 182.586,127.311 174.082,127.311 174.082,144.318 
			182.586,144.318 182.586,171.957 174.082,171.957 174.082,191.091 157.074,191.091 157.074,199.595 131.563,199.595 
			131.563,191.091 114.555,191.091 114.555,199.595 97.547,199.595 97.547,191.091 80.539,191.091 80.539,199.595 63.531,199.595 
			63.531,191.091 46.524,191.091 46.524,199.595 21.012,199.595 21.012,191.091 4.004,191.091 4.004,171.957 -4.5,171.957 
			-4.5,144.318 4.004,144.318 4.004,127.311 -4.5,127.311 -4.5,110.303 4.004,110.303 4.004,93.295 -4.5,93.295 -4.5,76.287 
			4.004,76.287 4.004,59.279 -4.5,59.279 -4.5,42.272 4.004,42.272 4.004,25.264 -4.5,25.264 -4.5,-2.374 4.004,-2.374 		"/>
	</g>
	<g transform="translate(256.3584785, 150.0591785) ">
		<polygon fill="none" stroke="#FF0000" stroke-width="0.001" points="-42.768,-21.508 -25.761,-21.508 -25.761,-30.012 
			-0.248,-30.012 -0.248,-21.508 16.76,-21.508 16.76,-30.012 33.768,-30.012 33.768,-21.508 50.776,-21.508 50.776,-30.012 
			67.783,-30.012 67.783,-21.508 84.791,-21.508 84.791,-30.012 110.303,-30.012 110.303,-21.508 127.311,-21.508 127.311,-2.374 
			135.815,-2.374 135.815,25.264 127.311,25.264 127.311,42.272 135.815,42.272 135.815,59.279 127.311,59.279 127.311,76.287 
			135.815,76.287 135.815,93.295 127.311,93.295 127.311,110.303 135.815,110.303 135.815,127.311 127.311,127.311 127.311,144.318 
			135.815,144.318 135.815,171.957 127.311,171.957 127.311,191.091 110.303,191.091 110.303,199.595 84.791,199.595 
			84.791,191.091 67.783,191.091 67.783,199.595 50.776,199.595 50.776,191.091 33.768,191.091 33.768,199.595 16.76,199.595 
			16.76,191.091 -0.248,191.091 -0.248,199.595 -25.761,199.595 -25.761,191.091 -42.768,191.091 -42.768,171.957 -51.272,171.957 
			-51.272,144.318 -42.768,144.318 -42.768,127.311 -51.272,127.311 -51.272,110.303 -42.768,110.303 -42.768,93.295 
			-51.272,93.295 -51.272,76.287 -42.768,76.287 -42.768,59.279 -51.272,59.279 -51.272,42.272 -42.768,42.272 -42.768,25.264 
			-51.272,25.264 -51.272,-2.374 -42.768,-2.374 		"/>
	</g>
	<rect x="128.39" y="42.165" fill="none" stroke="#FF0000" stroke-width="0.001" width="34.096" height="31.323"/>
	<circle fill="none" stroke="#FF0000" stroke-width="0.001" cx="261.382" cy="62.827" r="7.937"/>
	<g>
		<path d="M155.694,84.535v4.4h-1.584v-4.356c0-1.023-0.594-1.727-1.727-1.727s-1.716,0.704-1.716,1.727v4.356h-1.595v-4.4
			c0-1.815,1.078-3.069,3.312-3.069S155.694,82.72,155.694,84.535z"/>
		<path d="M148.126,82.632l-0.858,1.221c-0.517-0.539-1.32-1.001-2.333-1.001c-0.869,0-1.276,0.385-1.276,0.814
			c0,1.276,4.225,0.385,4.225,3.146c0,1.221-1.056,2.233-2.784,2.233c-1.166,0-2.134-0.352-2.86-1.023l0.869-1.166
			c0.594,0.55,1.386,0.803,2.134,0.803c0.66,0,1.034-0.286,1.034-0.726c0-1.155-4.213-0.374-4.213-3.114
			c0-1.342,0.968-2.354,2.938-2.354C146.421,81.466,147.433,81.939,148.126,82.632z"/>
		<path d="M141.02,81.598v7.338h-3.862c-1.397,0-2.112-0.891-2.112-1.87c0-0.913,0.572-1.54,1.266-1.683
			c-0.792-0.121-1.408-0.88-1.408-1.793c0-1.111,0.726-1.991,2.134-1.991H141.02z M136.498,83.809c0,0.462,0.33,0.836,0.935,0.836
			h2.024v-1.672h-2.024C136.85,82.973,136.498,83.281,136.498,83.809z M136.641,86.791c0,0.451,0.33,0.77,0.858,0.77h1.958v-1.54
			h-1.958C136.971,86.021,136.641,86.318,136.641,86.791z"/>
	</g>
	<g>
		<path d="M266.876,78.489l0.462,1.243h3.146l0.462-1.243h1.771l-2.827,7.338h-1.958l-2.827-7.338H266.876z M268.911,84.264
			l1.145-3.158h-2.289L268.911,84.264z"/>
		<path d="M264.787,81.426v4.4h-1.584V81.47c0-1.023-0.594-1.727-1.727-1.727s-1.716,0.704-1.716,1.727v4.356h-1.595v-4.4
			c0-1.815,1.078-3.069,3.312-3.069S264.787,79.611,264.787,81.426z"/>
		<path d="M251.927,78.489l1.837,2.685l1.848-2.685h1.859l-2.663,3.763l2.498,3.575h-1.859l-1.683-2.508l-1.662,2.508h-1.881
			l2.497-3.564l-2.662-3.773H251.927z"/>
	</g>
	<circle fill="none" stroke="#FF0000" stroke-width="0.001" cx="55.995" cy="234.414" r="7.087"/>
	<circle fill="none" stroke="#FF0000" stroke-width="0.001" cx="55.995" cy="291.65" r="7.087"/>
	<circle fill="none" stroke="#FF0000" stroke-width="0.001" cx="55.995" cy="176.741" r="7.087"/>
	<g>
		<path d="M81.3,303.231h-7.338v-5.192h1.375v3.631h1.54v-3.554h1.375v3.554h1.672v-3.631H81.3V303.231z"/>
		<path d="M81.3,296.852h-5.314v-1.398h0.715c-0.462-0.385-0.847-1.033-0.847-1.693h1.364c-0.022,0.099-0.033,0.22-0.033,0.385
			c0,0.462,0.264,1.078,0.605,1.309H81.3V296.852z"/>
		<path d="M81.3,292.892h-5.314v-1.397h0.715c-0.462-0.385-0.847-1.034-0.847-1.694h1.364c-0.022,0.099-0.033,0.22-0.033,0.386
			c0,0.461,0.264,1.078,0.605,1.309H81.3V292.892z"/>
		<path d="M78.637,289.273c-1.507,0-2.783-1.056-2.783-2.806c0-1.76,1.276-2.816,2.783-2.816c1.507,0,2.794,1.057,2.794,2.816
			C81.432,288.218,80.145,289.273,78.637,289.273z M78.637,285.104c-0.825,0-1.54,0.483-1.54,1.363c0,0.869,0.715,1.354,1.54,1.354
			c0.836,0,1.551-0.484,1.551-1.354C80.189,285.588,79.474,285.104,78.637,285.104z"/>
		<path d="M81.3,282.607h-5.314v-1.397h0.715c-0.462-0.385-0.847-1.034-0.847-1.694h1.364c-0.022,0.099-0.033,0.22-0.033,0.386
			c0,0.461,0.264,1.078,0.605,1.309H81.3V282.607z"/>
	</g>
	<g>
		<path d="M80.266,250.366l-1.221-0.857c0.539-0.518,1.001-1.32,1.001-2.332c0-0.869-0.385-1.276-0.814-1.276
			c-1.276,0-0.385,4.225-3.146,4.225c-1.221,0-2.233-1.056-2.233-2.784c0-1.166,0.352-2.134,1.023-2.859l1.166,0.869
			c-0.55,0.594-0.803,1.386-0.803,2.134c0,0.66,0.286,1.034,0.726,1.034c1.155,0,0.374-4.213,3.114-4.213
			c1.342,0,2.354,0.967,2.354,2.937C81.432,248.661,80.959,249.674,80.266,250.366z"/>
		<path d="M79.969,243.162h-2.762v0.88h-1.221v-0.88h-1.452v-1.397h1.452v-1.078h1.221v1.078h2.388c0.341,0,0.594-0.176,0.594-0.484
			c0-0.209-0.077-0.406-0.165-0.483l1.067-0.298c0.187,0.209,0.341,0.584,0.341,1.166C81.432,242.645,80.926,243.162,79.969,243.162
			z"/>
		<path d="M81.3,236.539h-0.561c0.44,0.363,0.693,0.99,0.693,1.684c0,0.847-0.572,1.837-1.76,1.837c-1.254,0-1.716-0.99-1.716-1.837
			c0-0.716,0.231-1.331,0.649-1.684h-0.671c-0.539,0-0.891,0.462-0.891,1.167c0,0.561,0.22,1.088,0.627,1.529l-0.979,0.549
			c-0.583-0.648-0.836-1.484-0.836-2.32c0-1.222,0.484-2.333,2.013-2.333H81.3V236.539z M80.024,236.539h-0.66
			c-0.308,0.231-0.473,0.671-0.473,1.122c0,0.551,0.297,1.002,0.803,1.002c0.506,0,0.792-0.451,0.792-1.002
			C80.486,237.21,80.332,236.77,80.024,236.539z"/>
		<path d="M79.969,233.471h-2.762v0.879h-1.221v-0.879h-1.452v-1.398h1.452v-1.078h1.221v1.078h2.388
			c0.341,0,0.594-0.176,0.594-0.483c0-0.209-0.077-0.407-0.165-0.484l1.067-0.297c0.187,0.209,0.341,0.583,0.341,1.166
			C81.432,232.954,80.926,233.471,79.969,233.471z"/>
		<path d="M81.3,226.452h-0.671c0.396,0.363,0.803,1.002,0.803,1.871c0,1.166-0.638,1.716-1.672,1.716h-3.774v-1.397h3.224
			c0.737,0,0.979-0.385,0.979-0.979c0-0.539-0.297-0.969-0.605-1.211h-3.598v-1.396H81.3V226.452z"/>
		<path d="M80.607,224.132l-1.012-0.604c0.374-0.396,0.737-1.177,0.737-1.837c0-0.605-0.231-0.892-0.561-0.892
			c-0.869,0-0.154,3.146-2.244,3.146c-0.891,0-1.672-0.771-1.672-2.179c0-0.891,0.308-1.605,0.726-2.134l0.99,0.562
			c-0.33,0.318-0.616,0.924-0.616,1.572c0,0.506,0.22,0.836,0.517,0.836c0.781,0,0.121-3.156,2.267-3.156
			c0.979,0,1.694,0.836,1.694,2.31C81.432,222.68,81.124,223.571,80.607,224.132z"/>
	</g>
	<g>
		<path d="M81.3,193.042h-5.963v2.145h-1.375v-5.853h1.375v2.134H81.3V193.042z"/>
		<path d="M81.3,183.548l-2.685,1.837l2.685,1.848v1.859l-3.763-2.662l-3.575,2.498v-1.859l2.508-1.684l-2.508-1.662v-1.881
			l3.564,2.498l3.773-2.663V183.548z"/>
		<path d="M81.52,178.885l-7.778-2.607v-1.012l7.778,2.607V178.885z"/>
		<path d="M81.3,167.566l-2.607,1.441v1.145H81.3v1.562h-7.338v-3.433c0-1.529,1.001-2.475,2.365-2.475
			c1.287,0,1.991,0.825,2.178,1.617l2.794-1.661V167.566z M76.316,167.411c-0.605,0-0.979,0.473-0.979,1.089v1.65h1.98v-1.65
			C77.318,167.885,76.944,167.411,76.316,167.411z"/>
		<path d="M81.3,159.855l-2.685,1.837l2.685,1.848v1.859l-3.763-2.663l-3.575,2.498v-1.859l2.508-1.683l-2.508-1.662v-1.881
			l3.564,2.498l3.773-2.662V159.855z"/>
	</g>
	<circle fill="none" stroke="#FF0000" stroke-width="0.001" cx="145.436" cy="195.717" r="13.465"/>
	<g>
		<path d="M455.45,167.579v-8.671h1.859v7.046h3.666v1.625H455.45z"/>
		<path d="M461.638,164.433c0-1.82,1.353-3.289,3.25-3.289c1.886,0,3.146,1.404,3.146,3.445v0.39h-4.667
			c0.117,0.767,0.741,1.404,1.808,1.404c0.533,0,1.261-0.221,1.664-0.611l0.74,1.092c-0.623,0.572-1.611,0.871-2.587,0.871
			C463.081,167.735,461.638,166.448,461.638,164.433z M464.888,162.496c-1.026,0-1.469,0.715-1.533,1.339h3.094
			C466.397,163.237,465.981,162.496,464.888,162.496z"/>
		<path d="M473.001,167.579v-0.663c-0.43,0.52-1.171,0.819-1.99,0.819c-1,0-2.17-0.676-2.17-2.08c0-1.482,1.17-2.028,2.17-2.028
			c0.846,0,1.574,0.273,1.99,0.767v-0.793c0-0.637-0.547-1.053-1.379-1.053c-0.663,0-1.287,0.26-1.807,0.741l-0.65-1.157
			c0.768-0.689,1.756-0.988,2.743-0.988c1.443,0,2.757,0.572,2.757,2.379v4.056H473.001z M473.001,166.071v-0.78
			c-0.273-0.364-0.794-0.559-1.326-0.559c-0.65,0-1.184,0.351-1.184,0.949c0,0.598,0.533,0.936,1.184,0.936
			C472.207,166.617,472.728,166.435,473.001,166.071z"/>
		<path d="M477.941,166.773v3.198h-1.651V161.3h1.651v0.793c0.48-0.611,1.17-0.949,1.938-0.949c1.611,0,2.781,1.196,2.781,3.289
			c0,2.093-1.17,3.302-2.781,3.302C479.136,167.735,478.46,167.424,477.941,166.773z M480.956,164.433
			c0-1.079-0.649-1.82-1.599-1.82c-0.533,0-1.131,0.299-1.417,0.715v2.21c0.273,0.403,0.884,0.728,1.417,0.728
			C480.307,166.266,480.956,165.525,480.956,164.433z"/>
		<path d="M483.659,167.579v-1.456c3.55-2.626,4.59-3.51,4.59-4.576c0-0.767-0.689-1.131-1.404-1.131
			c-0.988,0-1.742,0.39-2.326,1.001l-1.054-1.222c0.845-0.975,2.132-1.417,3.341-1.417c1.859,0,3.315,1.04,3.315,2.769
			c0,1.482-1.222,2.769-3.472,4.407h3.537v1.625H483.659z"/>
		<path d="M497.7,167.579l-0.547-1.469h-3.718l-0.546,1.469h-2.093l3.341-8.671h2.314l3.341,8.671H497.7z M495.295,160.754
			l-1.353,3.731h2.705L495.295,160.754z"/>
		<path d="M500.56,167.579V161.3h1.651v0.845c0.455-0.546,1.222-1.001,2.002-1.001v1.612c-0.117-0.026-0.26-0.039-0.455-0.039
			c-0.546,0-1.274,0.312-1.547,0.715v4.147H500.56z"/>
		<path d="M509.556,167.579v-0.806c-0.494,0.624-1.17,0.962-1.938,0.962c-1.572,0-2.781-1.196-2.781-3.302
			c0-2.041,1.183-3.289,2.781-3.289c0.741,0,1.443,0.312,1.938,0.962v-3.198h1.664v8.671H509.556z M509.556,165.552v-2.223
			c-0.273-0.416-0.871-0.715-1.417-0.715c-0.949,0-1.599,0.741-1.599,1.82c0,1.092,0.649,1.833,1.599,1.833
			C508.685,166.266,509.282,165.968,509.556,165.552z"/>
		<path d="M517.096,167.579v-0.793c-0.429,0.468-1.183,0.949-2.21,0.949c-1.378,0-2.028-0.754-2.028-1.976V161.3h1.651v3.809
			c0,0.871,0.455,1.157,1.156,1.157c0.638,0,1.145-0.351,1.431-0.715V161.3h1.651v6.279H517.096z"/>
		<path d="M520.229,159.636c0-0.546,0.442-0.975,0.976-0.975c0.545,0,0.987,0.429,0.987,0.975s-0.442,0.988-0.987,0.988
			C520.671,160.624,520.229,160.182,520.229,159.636z M520.384,167.579V161.3h1.652v6.279H520.384z"/>
		<path d="M527.911,167.579v-3.796c0-0.871-0.455-1.17-1.156-1.17c-0.65,0-1.145,0.364-1.43,0.728v4.238h-1.652V161.3h1.652v0.806
			c0.402-0.468,1.183-0.962,2.196-0.962c1.392,0,2.054,0.78,2.054,2.002v4.433H527.911z"/>
		<path d="M530.798,164.433c0-1.781,1.248-3.289,3.314-3.289c2.08,0,3.328,1.508,3.328,3.289c0,1.781-1.248,3.302-3.328,3.302
			C532.046,167.735,530.798,166.214,530.798,164.433z M535.725,164.433c0-0.975-0.572-1.82-1.612-1.82
			c-1.027,0-1.599,0.845-1.599,1.82c0,0.988,0.571,1.833,1.599,1.833C535.153,166.266,535.725,165.421,535.725,164.433z"/>
		<path d="M538.467,167.579v-1.456c3.55-2.626,4.589-3.51,4.589-4.576c0-0.767-0.688-1.131-1.403-1.131
			c-0.988,0-1.742,0.39-2.327,1.001l-1.053-1.222c0.845-0.975,2.132-1.417,3.341-1.417c1.858,0,3.315,1.04,3.315,2.769
			c0,1.482-1.223,2.769-3.472,4.407h3.536v1.625H538.467z"/>
		<path d="M548.517,167.579v-7.046h-2.535v-1.625h6.916v1.625h-2.521v7.046H548.517z"/>
		<path d="M557.435,167.579l-1.431-2.119l-1.442,2.119h-1.834l2.236-3.224l-2.105-3.055h1.846l1.3,1.924l1.287-1.924h1.847
			l-2.094,3.055l2.236,3.224H557.435z"/>
	</g>
	<g>
		<path d="M485.359,185.327l-0.21-1.289h-3.059l-0.77,1.289h-1.398l4.098-6.666h1.459l1.149,6.666H485.359z M484.549,179.83
			l-1.898,3.179h2.398L484.549,179.83z"/>
		<path d="M487.321,185.327l1.069-4.827h1.05l-0.15,0.669c0.44-0.489,0.95-0.789,1.749-0.789l-0.239,1.06
			c-0.07-0.021-0.23-0.05-0.42-0.05c-0.51,0-0.999,0.31-1.289,0.669l-0.72,3.269H487.321z"/>
		<path d="M492.061,185.327l-0.899-4.827h1.09l0.6,3.618l2.219-3.618h1.159l-3.038,4.827H492.061z"/>
		<path d="M495.821,185.327l1.069-4.827h1.05l-1.069,4.827H495.821z M497.02,179.35c0-0.47,0.41-0.74,0.74-0.74
			c0.34,0,0.59,0.25,0.59,0.561c0,0.47-0.41,0.739-0.74,0.739C497.27,179.91,497.02,179.65,497.02,179.35z"/>
		<path d="M502.549,181.189l0.56-2.528h1.049l-1.479,6.666h-1.05l0.149-0.64c-0.409,0.489-0.909,0.76-1.519,0.76
			c-1.09,0-1.849-0.729-1.849-1.999c0-1.499,0.939-3.068,2.538-3.068C501.649,180.38,502.229,180.689,502.549,181.189z
			 M499.51,183.238c0,0.779,0.5,1.279,1.189,1.279c0.52,0,0.979-0.31,1.27-0.689l0.41-1.869c-0.221-0.37-0.68-0.649-1.27-0.649
			C500.16,181.309,499.51,182.239,499.51,183.238z"/>
		<path d="M506.651,185.327l1.469-6.666h3.039c1.089,0,1.769,0.699,1.769,1.568c0,0.91-0.72,1.67-1.529,1.76
			c0.59,0.159,0.96,0.749,0.96,1.349c0,0.96-0.67,1.989-2.299,1.989H506.651z M511.178,183.238c0-0.46-0.33-0.8-0.869-0.8h-1.85
			l-0.409,1.859h1.938C510.758,184.298,511.178,183.788,511.178,183.238z M511.668,180.42c0-0.42-0.36-0.729-0.82-0.729h-1.778
			l-0.38,1.719h1.909C511.408,181.409,511.668,180.899,511.668,180.42z"/>
		<path d="M513.111,185.327l1.069-4.827h1.05l-0.15,0.669c0.44-0.489,0.95-0.789,1.749-0.789l-0.239,1.06
			c-0.07-0.021-0.23-0.05-0.42-0.05c-0.51,0-0.999,0.31-1.289,0.669l-0.72,3.269H513.111z"/>
		<path d="M520.899,181.189l0.149-0.689h1.05l-1.069,4.827h-1.05l0.149-0.64c-0.409,0.489-0.909,0.76-1.519,0.76
			c-1.09,0-1.849-0.729-1.849-1.999c0-1.499,0.939-3.068,2.538-3.068C519.998,180.38,520.578,180.689,520.899,181.189z
			 M517.86,183.238c0,0.779,0.5,1.279,1.189,1.279c0.52,0,0.979-0.31,1.27-0.689l0.41-1.869c-0.221-0.37-0.68-0.649-1.27-0.649
			C518.51,181.309,517.86,182.239,517.86,183.238z M518.86,179.83c-0.3,0-0.52-0.22-0.52-0.52c0-0.34,0.31-0.649,0.659-0.649
			c0.29,0,0.52,0.229,0.52,0.52C519.519,179.53,519.199,179.83,518.86,179.83z M520.948,179.83c-0.3,0-0.52-0.22-0.52-0.52
			c0-0.34,0.31-0.649,0.659-0.649c0.29,0,0.52,0.229,0.52,0.52C521.608,179.53,521.288,179.83,520.948,179.83z"/>
		<path d="M525.658,185.327l0.67-3.028c0.02-0.1,0.04-0.21,0.04-0.31c0-0.49-0.391-0.68-0.9-0.68c-0.489,0-0.959,0.319-1.279,0.649
			l-0.749,3.368h-1.05l1.069-4.827h1.05l-0.15,0.649c0.4-0.38,0.95-0.77,1.649-0.77c0.899,0,1.489,0.45,1.489,1.209
			c0,0.09-0.03,0.3-0.06,0.41l-0.729,3.328H525.658z"/>
		<path d="M528.261,183.288c0-1.579,1.189-2.908,2.758-2.908c1.26,0,2.14,0.829,2.14,2.129c0,0.26-0.061,0.6-0.101,0.749h-3.728
			c-0.01,0.03-0.01,0.11-0.01,0.16c0,0.56,0.479,1.17,1.459,1.17c0.449,0,0.959-0.141,1.289-0.41l0.34,0.739
			c-0.46,0.32-1.1,0.53-1.709,0.53C529.21,185.447,528.261,184.607,528.261,183.288z M532.208,182.509c0-0.03,0.011-0.1,0.011-0.13
			c0-0.63-0.431-1.14-1.27-1.14c-0.77,0-1.39,0.6-1.51,1.27h2.749H532.208z"/>
	</g>
</g>
<g id="Layer_2" display="none">
	<text transform="matrix(-1 0 0 -1 135.4197 117.5979)" display="inline" font-family="'ProximaNova-Bold'" font-size="11">USB</text>
	<text transform="matrix(-1 0 0 -1 251.8557 114.4885)" display="inline" font-family="'ProximaNova-Bold'" font-size="11">AUX</text>
	
		<text transform="matrix(1.311342e-07 -1 1 1.311342e-07 60.3 339.9578)" display="inline" font-family="'ProximaNova-Bold'" font-size="11">Error</text>
	
		<text transform="matrix(1.311342e-07 -1 1 1.311342e-07 60.3 286.6638)" display="inline" font-family="'ProximaNova-Bold'" font-size="11">Status</text>
	
		<text transform="matrix(1.311342e-07 -1 1 1.311342e-07 60.3 231.4617)" display="inline" font-family="'ProximaNova-Bold'" font-size="11">TX / RX</text>
	<text transform="matrix(1 0 0 1 433.3518 203.5789)" display="inline" font-family="'ProximaNova-Bold'" font-size="13">Leap2Arduino2Tx</text>
	<text transform="matrix(1 0 0 1 459.4514 221.3269)" display="inline" font-family="'ProximaNova-SemiboldIt'" font-size="10">Arvid Bräne</text>
</g>
</svg>
